<?xml version="1.0" standalone="no"?>
<!DOCTYPE svg PUBLIC "-//W3C//DTD SVG 20010904//EN"
 "http://www.w3.org/TR/2001/REC-SVG-20010904/DTD/svg10.dtd">
<svg version="1.0" xmlns="http://www.w3.org/2000/svg"
 width="2400.000000pt" height="1260.000000pt" viewBox="0 0 2400.000000 1260.000000"
 preserveAspectRatio="xMidYMid meet">

<g transform="translate(0.000000,1260.000000) scale(0.100000,-0.100000)"
fill="#000000" stroke="none">
<path d="M8643 11866 c-94 -18 -190 -63 -247 -116 -150 -138 -161 -410 -24
-565 45 -52 122 -101 283 -183 195 -99 257 -155 274 -249 19 -100 -23 -188
-113 -236 -59 -32 -220 -32 -287 -1 -96 45 -161 136 -196 278 l-16 67 -66 -3
-66 -3 -7 -115 c-3 -63 -9 -141 -11 -173 l-5 -58 40 -29 c96 -70 266 -113 438
-112 263 1 443 91 524 262 29 60 31 73 31 175 0 98 -3 116 -27 167 -53 113
-149 194 -348 292 -144 72 -229 128 -259 172 -69 101 -35 241 72 293 59 29
175 29 251 1 88 -33 155 -124 187 -252 l11 -48 62 0 62 0 17 158 c19 180 25
162 -77 213 -127 65 -351 94 -503 65z"/>
<path d="M9490 11411 c-81 -26 -172 -90 -229 -162 l-34 -41 30 -30 30 -30 50
49 c77 78 133 80 133 4 0 -21 -27 -147 -61 -282 -74 -297 -84 -398 -47 -469
32 -61 74 -84 157 -84 90 0 170 42 255 136 96 105 242 367 307 551 7 20 16 37
20 37 4 0 -8 -57 -27 -127 -112 -414 -114 -518 -14 -578 27 -16 51 -20 111
-19 104 1 184 39 276 129 l68 66 -33 30 -34 30 -48 -45 c-80 -75 -130 -72
-130 8 0 57 83 538 136 789 l6 27 -140 0 -140 0 -28 -72 c-131 -351 -272 -625
-370 -721 -30 -30 -45 -37 -69 -35 -29 3 -30 4 -33 64 -2 48 9 107 52 275 88
343 92 401 30 468 -32 35 -34 36 -116 38 -46 1 -94 -1 -108 -6z"/>
<path d="M10678 11397 c-73 -31 -146 -85 -194 -143 l-38 -47 32 -29 33 -28 49
49 c76 76 130 77 130 2 0 -28 -111 -678 -136 -793 l-6 -28 139 0 139 0 23 73
c100 310 269 648 371 741 42 38 55 42 80 26 31 -19 9 -203 -69 -595 -23 -110
-43 -210 -46 -222 l-5 -23 138 0 139 0 58 157 c110 301 224 525 318 629 52 58
80 72 102 54 31 -26 19 -106 -63 -421 -23 -86 -44 -189 -47 -230 -6 -65 -4
-79 17 -119 33 -65 75 -85 169 -84 104 1 184 39 276 129 l68 66 -33 30 -34 30
-48 -45 c-54 -51 -92 -65 -116 -45 -24 20 -14 101 36 293 85 331 97 434 59
513 -30 62 -81 86 -168 81 -109 -6 -187 -56 -281 -180 -89 -118 -138 -212
-271 -527 -24 -57 -14 -3 31 174 75 295 84 400 39 473 -28 47 -78 65 -159 60
-80 -6 -135 -33 -208 -102 -95 -89 -200 -268 -302 -512 -23 -55 -45 -103 -50
-108 -4 -4 21 106 57 245 57 226 64 263 61 331 -3 72 -5 80 -36 110 -31 31
-37 33 -115 36 -68 2 -92 -2 -139 -21z"/>
<path d="M12528 11396 c-72 -30 -145 -83 -194 -142 l-38 -47 32 -29 33 -28 49
49 c76 76 130 77 130 2 0 -28 -111 -678 -136 -793 l-6 -28 139 0 139 0 23 73
c100 310 269 648 371 741 42 38 55 42 80 26 31 -19 9 -203 -69 -595 -23 -110
-43 -210 -46 -222 l-5 -23 138 0 139 0 48 133 c128 353 277 631 373 698 45 31
66 18 70 -43 3 -48 -15 -135 -77 -377 -22 -84 -43 -185 -46 -225 -6 -62 -3
-77 17 -116 33 -65 75 -85 169 -84 104 1 184 39 276 129 l68 66 -33 30 -34 30
-48 -45 c-54 -51 -92 -65 -116 -45 -24 20 -14 100 40 313 62 243 79 339 73
412 -6 75 -28 115 -80 144 -33 19 -50 22 -106 18 -199 -15 -342 -196 -545
-692 -31 -76 -25 -28 19 139 52 196 79 362 69 420 -15 98 -75 141 -183 133
-81 -6 -136 -33 -209 -102 -95 -89 -200 -268 -302 -512 -23 -55 -45 -103 -50
-108 -4 -4 20 104 56 240 85 333 86 407 5 461 -48 32 -153 32 -233 -1z"/>
<path d="M14642 11404 c-268 -72 -462 -343 -462 -645 0 -171 62 -289 183 -349
219 -108 508 -21 651 194 20 30 36 57 36 59 0 3 -16 15 -36 27 l-35 23 -59
-60 c-70 -70 -138 -110 -216 -124 -146 -27 -244 61 -244 221 l0 47 83 17 c111
24 277 80 349 118 76 40 155 126 170 184 7 26 17 43 24 40 6 -2 29 14 50 36
38 38 82 68 103 68 5 0 17 -7 26 -17 20 -20 23 5 -61 -470 -35 -199 -64 -369
-64 -378 0 -13 20 -15 134 -15 l133 0 43 123 c103 298 214 528 291 608 45 47
52 50 91 47 37 -3 45 -7 58 -35 14 -30 19 -33 62 -33 40 0 50 4 72 31 37 43
56 94 56 146 0 97 -53 153 -144 153 -152 0 -254 -138 -441 -598 -32 -78 -60
-141 -62 -139 -2 2 25 116 59 253 44 180 61 268 62 319 1 129 -46 171 -184
163 -95 -6 -165 -36 -243 -108 -32 -29 -59 -51 -60 -49 -1 2 -11 22 -22 44
-38 75 -133 115 -269 114 -45 0 -105 -7 -134 -15z m163 -119 c21 -20 25 -34
25 -80 0 -97 -45 -167 -148 -229 -50 -29 -188 -86 -211 -86 -10 0 12 119 32
176 36 100 98 186 162 226 44 27 110 24 140 -7z"/>
<path d="M12745 9937 c-93 -22 -171 -41 -172 -42 -2 -1 -5 -15 -8 -31 -6 -27
-1 -32 55 -68 71 -45 71 -43 40 -217 -29 -161 -23 -150 -73 -125 -56 28 -181
34 -268 12 -303 -76 -519 -376 -519 -722 0 -77 -2 -85 -15 -74 -13 11 -18 10
-30 -7 -20 -28 -78 -71 -107 -78 -44 -11 -61 17 -53 89 20 196 87 528 141 699
19 60 34 113 34 118 0 16 -96 10 -110 -6 -7 -9 -35 -34 -61 -56 l-49 -41 -30
25 c-49 42 -131 67 -218 67 -303 0 -567 -238 -636 -572 -9 -42 -16 -98 -16
-123 0 -49 -7 -54 -46 -29 -24 17 -25 16 -92 -48 -79 -76 -132 -106 -213 -119
-146 -23 -239 63 -239 221 l0 47 83 17 c357 77 529 199 529 377 0 158 -113
237 -321 226 -220 -11 -396 -135 -501 -352 -50 -105 -70 -191 -70 -302 0 -175
61 -293 183 -353 219 -108 511 -21 650 193 l31 49 12 -65 c28 -150 103 -220
235 -221 78 0 149 30 223 95 58 51 161 205 220 329 25 52 46 90 46 83 0 -6
-13 -67 -30 -135 -67 -273 -28 -374 145 -372 101 1 168 30 253 109 l69 64 17
-39 c9 -22 37 -57 62 -79 104 -92 258 -73 386 47 63 59 165 212 218 325 22 48
41 87 44 87 2 0 -10 -53 -26 -117 -41 -164 -47 -256 -20 -315 28 -65 65 -83
164 -82 66 1 86 5 145 34 42 21 92 58 133 97 l65 64 -33 30 -34 30 -48 -45
c-77 -72 -130 -72 -130 0 0 72 63 431 180 1028 33 170 60 310 60 312 0 13
-108 -4 -255 -39z m-1345 -587 c34 -24 35 -46 6 -142 -68 -225 -222 -499 -318
-569 -70 -50 -138 -33 -158 39 -39 142 27 406 140 557 89 120 245 175 330 115z
m1155 1 c19 -11 31 -26 33 -42 9 -77 -150 -441 -250 -573 -77 -103 -160 -147
-218 -116 -79 42 -60 322 34 509 103 203 270 296 401 222z m-2150 -6 c20 -19
25 -35 25 -71 0 -112 -53 -188 -177 -252 -74 -38 -181 -78 -187 -71 -8 10 29
152 56 216 33 80 104 168 153 189 50 22 102 18 130 -11z"/>
<path d="M13351 9940 c-76 -19 -123 -76 -128 -157 -7 -109 50 -168 162 -168
100 0 166 57 180 155 8 56 -25 126 -70 152 -38 21 -100 29 -144 18z"/>
<path d="M8456 9904 c-3 -9 -6 -33 -6 -53 l0 -38 56 -6 c70 -7 101 -27 109
-70 10 -51 -113 -1052 -135 -1104 -22 -50 -60 -72 -135 -80 -58 -6 -65 -14
-65 -80 l0 -33 339 0 339 0 6 23 c3 12 6 36 6 53 0 31 -1 31 -56 37 -66 7
-101 27 -111 65 -6 24 31 411 43 455 5 15 14 17 51 15 l46 -3 131 -201 c146
-225 210 -314 280 -391 l48 -53 198 0 c220 0 210 -3 210 69 0 38 0 38 -47 45
-60 8 -121 44 -171 101 -46 52 -338 464 -335 473 1 3 35 14 75 24 246 62 381
224 366 440 -13 170 -128 275 -345 313 -66 12 -175 15 -488 15 -358 0 -404 -2
-409 -16z m755 -124 c59 -15 116 -62 140 -114 27 -59 26 -187 -2 -263 -28 -74
-87 -133 -166 -164 -46 -18 -84 -23 -191 -27 l-133 -4 5 23 c3 13 19 141 36
284 18 143 34 266 36 274 4 11 26 13 117 8 61 -3 133 -11 158 -17z"/>
<path d="M15764 9476 c-18 -8 -50 -31 -73 -51 l-41 -37 -27 18 c-137 92 -347
99 -523 16 -78 -36 -172 -134 -200 -208 -31 -82 -37 -187 -15 -255 17 -51 99
-149 125 -149 22 0 8 -19 -22 -29 -56 -20 -107 -62 -129 -107 l-21 -44 -30 25
-30 26 -48 -45 c-79 -74 -130 -72 -130 5 0 20 25 136 55 256 68 266 87 379 74
448 -18 99 -73 138 -184 133 -98 -5 -152 -34 -250 -132 -94 -96 -180 -234
-276 -447 -34 -76 -64 -137 -66 -135 -2 2 24 113 57 247 54 213 61 254 58 321
-3 72 -5 80 -36 110 -29 30 -38 33 -106 36 -90 5 -151 -13 -236 -69 -32 -22
-78 -63 -101 -91 l-43 -51 32 -28 33 -29 49 49 c76 76 130 77 130 2 0 -28
-111 -678 -136 -793 l-6 -28 140 0 140 0 28 83 c43 131 148 369 214 485 112
197 199 293 251 277 20 -7 21 -12 16 -84 -3 -42 -24 -148 -46 -236 -85 -330
-93 -403 -50 -473 29 -49 72 -67 160 -66 100 1 179 37 272 124 l67 62 0 -38
c0 -41 27 -95 63 -125 l22 -18 -21 -1 c-12 0 -53 -10 -90 -21 -212 -66 -217
-280 -9 -378 97 -46 161 -56 350 -56 142 0 194 4 245 18 205 56 303 160 303
319 0 127 -69 216 -198 253 -27 8 -131 28 -230 45 -186 32 -227 47 -233 87 -2
11 8 33 21 48 23 28 24 28 88 16 86 -15 129 -14 214 4 87 18 178 62 236 114
121 107 169 305 105 430 l-15 29 35 5 c37 6 84 -6 96 -26 4 -7 8 -22 8 -34 0
-20 5 -23 44 -23 37 0 48 5 70 31 32 38 39 99 15 145 -26 50 -125 70 -195 40z
m-349 -110 c79 -79 41 -357 -64 -469 -82 -89 -177 -68 -200 46 -24 111 26 312
96 392 52 60 125 74 168 31z m-234 -1001 c191 -39 257 -64 278 -109 29 -62
-22 -139 -114 -172 -70 -25 -270 -24 -340 0 -126 45 -177 138 -127 236 19 39
74 80 107 80 12 0 100 -16 196 -35z"/>
<path d="M13167 9456 c-70 -29 -138 -80 -190 -144 l-39 -46 32 -29 32 -29 52
50 c57 57 95 72 116 47 21 -25 6 -137 -50 -375 -62 -266 -72 -360 -42 -422 31
-63 70 -83 162 -82 112 1 175 29 269 120 l76 72 -29 31 -29 30 -46 -41 c-52
-45 -85 -61 -111 -53 -39 12 -35 65 30 355 47 208 70 339 70 389 -1 57 -32
115 -73 134 -53 26 -158 22 -230 -7z"/>
</g>
</svg>
